<?xml version="1.0" encoding="UTF-8"?> <svg xmlns="http://www.w3.org/2000/svg" width="154" height="34" viewBox="0 0 154 34" fill="none"><mask id="mask0_68_5106" style="mask-type:alpha" maskUnits="userSpaceOnUse" x="0" y="0" width="34" height="34"><path d="M28.9793 12.1243C29.6462 13.7829 29.9797 15.6082 29.9008 17.5301C29.6111 24.1995 24.2227 29.5965 17.5529 29.9037C9.92656 30.2547 3.64294 23.9626 4.00275 16.3278C4.31869 9.7022 9.66328 4.3403 16.2892 4.00682C18.1848 3.91029 20.0014 4.22621 21.6513 4.87561C22.1515 5.06867 22.7132 4.91949 23.0555 4.50703L24.0647 3.26967C24.5825 2.63783 24.3543 1.68128 23.6084 1.36536C21.4319 0.435145 19.0273 -0.0562905 16.4998 0.00513885C7.4254 0.242081 0.0974294 7.69259 0.000893281 16.7754C-0.0956428 26.2618 7.6448 33.9931 17.1229 33.8966C26.2412 33.8001 33.7095 26.411 33.8938 17.3019C33.9465 14.757 33.4287 12.3261 32.4721 10.141C32.1474 9.39506 31.1908 9.18444 30.5677 9.7022L29.3391 10.7114C28.9266 11.0624 28.7774 11.6328 28.9793 12.1243Z" fill="url(#paint0_linear_68_5106)"></path><path d="M28.2046 8.38563L29.4859 7.20092C30.0125 6.71826 30.03 5.9109 29.5474 5.38437C29.17 4.98069 28.7838 4.59456 28.3714 4.21721C27.8536 3.7521 27.055 3.79598 26.5898 4.31374L25.4051 5.60376C24.9312 6.12152 24.9575 6.93765 25.4841 7.41154C25.8 7.70113 26.1072 7.9995 26.4055 8.3242C26.8795 8.83319 27.6868 8.85952 28.2046 8.38563Z" fill="url(#paint1_linear_68_5106)"></path></mask><g mask="url(#mask0_68_5106)"><g filter="url(#filter0_f_68_5106)"><circle cx="16.9491" cy="16.9487" r="34.6679" fill="#684EE3"></circle></g><g filter="url(#filter1_f_68_5106)"><circle cx="5.23824" cy="39.9067" r="22.1875" fill="#785BFD"></circle></g><g filter="url(#filter2_f_68_5106)"><path d="M43.1441 44.6833C43.1441 53.1929 36.2457 60.0913 27.7361 60.0913C19.2265 60.0913 12.3281 53.1929 12.3281 44.6833C12.3281 36.1738 19.2265 29.2754 27.7361 29.2754C36.2457 29.2754 43.1441 36.1738 43.1441 44.6833Z" fill="#0FBDD7"></path></g><g filter="url(#filter3_f_68_5106)"><path d="M56.2378 -9.24489C56.2378 3.09399 46.2351 13.0966 33.8962 13.0966C21.5573 13.0966 11.5547 3.09399 11.5547 -9.24489C11.5547 -21.5838 21.5573 -31.5864 33.8962 -31.5864C46.2351 -31.5864 56.2378 -21.5838 56.2378 -9.24489Z" fill="#FF69FF"></path></g></g><path fill-rule="evenodd" clip-rule="evenodd" d="M48.455 7.07244C48.215 7.06244 46.4652 7.06244 46.2252 7.07244C45.5652 7.10244 45.1553 7.54239 45.2053 8.30232C45.2262 8.65785 45.2471 9.26127 45.2646 9.76693L45.2646 9.76693L45.2646 9.76696C45.2722 9.98655 45.2792 10.1877 45.2853 10.3421C45.2953 10.7421 45.6352 11.062 46.0352 11.052H48.6549C49.0549 11.052 49.3849 10.7421 49.4049 10.3421C49.4109 10.1877 49.4179 9.98656 49.4255 9.76696L49.4255 9.76689C49.443 9.26125 49.4639 8.65785 49.4849 8.30232C49.5248 7.54239 49.1149 7.10244 48.455 7.07244ZM82.1119 16.4616H81.042C80.6921 16.4616 80.4121 16.1816 80.4121 15.8317V13.8919C80.4121 13.5619 80.6621 13.2919 80.9821 13.2619C81.027 13.2569 81.0745 13.2519 81.122 13.2469C81.1695 13.2419 81.217 13.2369 81.262 13.2319C82.5219 13.0719 83.1218 12.492 83.2818 11.2221C83.3193 10.9447 83.3399 10.6672 83.3606 10.3898C83.3674 10.2973 83.3743 10.2047 83.3818 10.1122C83.4018 9.78227 83.6818 9.52229 84.0117 9.52229H86.4215C86.8415 9.52229 87.1314 9.86226 87.0614 10.2822C86.8615 11.5221 86.1515 12.422 85.0216 13.0719C84.8417 13.1719 84.7817 13.4019 84.8817 13.5819L85.0916 13.9518C85.1916 14.1318 85.4216 14.1918 85.6016 14.1018C86.8215 13.4419 88.1113 13.2419 89.4612 13.2619C89.8012 13.2619 90.0811 13.5519 90.0811 13.8919V15.8117C90.0811 16.1716 89.7912 16.4516 89.4412 16.4516H87.2114C86.9115 16.4516 86.5815 16.6916 86.5815 17.0815C86.5815 17.5548 86.5804 18.0281 86.5793 18.5014C86.577 19.448 86.5748 20.3945 86.5815 21.3411C86.5915 22.721 87.0514 23.1909 88.4313 23.1909C88.7813 23.1909 89.1412 23.1709 89.4912 23.1409C89.8512 23.1109 90.1511 23.4009 90.1511 23.7609V25.8107C90.1511 26.1406 89.9012 26.4106 89.5812 26.4306C88.1613 26.5506 86.7515 26.6006 85.3616 26.2006C83.7418 25.7307 83.0019 24.5308 82.8119 22.9409C82.7321 22.2725 82.7219 21.5941 82.7119 20.9256L82.7119 20.9212C82.7053 20.0289 82.7074 19.224 82.7096 18.391C82.7107 17.9638 82.7119 17.5292 82.7119 17.0715V17.0615C82.7319 16.7316 82.4519 16.4616 82.1119 16.4616ZM111.8 26.4405H109.21C108.87 26.4405 108.59 26.1605 108.59 25.8206V13.8918C108.59 13.5618 108.86 13.2918 109.19 13.2918H111.53C111.87 13.2918 112.199 13.5718 112.149 14.0118C112.069 14.7717 111.8 15.4916 111.5 16.2015C111.42 16.4015 111.51 16.6415 111.71 16.7215L112.139 16.9115C112.359 17.0115 112.609 16.8915 112.689 16.6715C113.439 14.4017 114.899 13.2518 117.349 13.2518C117.599 13.2518 117.949 13.4818 117.949 13.8818V16.2415C117.949 16.6315 117.619 16.8515 117.359 16.8715C117.257 16.8755 117.154 16.8792 117.052 16.8828C116.393 16.9065 115.73 16.9303 115.089 17.0514C113.629 17.3314 112.819 18.3113 112.569 19.7412C112.469 20.3311 112.429 20.9511 112.429 21.551C112.409 23.0508 112.419 25.8206 112.419 25.8206C112.429 26.1305 112.169 26.4405 111.8 26.4405ZM70.6933 22.271H68.2235C67.8336 22.271 67.5436 22.6209 67.6036 22.9909C67.8136 24.3608 68.7335 25.5106 70.1633 26.1206C71.9131 26.8705 73.743 26.9305 75.5928 26.5905C76.7227 26.3906 77.7326 25.9406 78.5525 25.1007C79.8424 23.7708 79.9623 21.1011 78.3325 19.9312C77.8525 19.5812 77.2926 19.2913 76.7227 19.1213C76.135 18.9526 75.5384 18.8224 74.941 18.692C74.4407 18.5829 73.9398 18.4735 73.443 18.3414C72.883 18.1914 72.3131 18.0114 71.8232 17.7214C71.2332 17.3815 71.2532 16.5715 71.7932 16.1516C71.9431 16.0316 72.1331 15.9316 72.3231 15.8716C73.013 15.6616 73.703 15.6716 74.3829 15.9016C74.9028 16.0816 75.2728 16.3916 75.4428 16.8815C75.5328 17.1615 75.7928 17.3115 76.0427 17.3115H78.4325C78.8625 17.3115 79.1224 16.8915 79.0424 16.5515C78.8025 15.3417 78.1225 14.4018 77.0126 13.8418C74.6629 12.6519 72.2231 12.6119 69.8234 13.6918C67.8636 14.5717 67.4336 16.5016 67.8636 18.1314C68.2035 19.4113 69.1834 20.0812 70.3733 20.4412C70.9064 20.5999 71.4491 20.7201 71.9906 20.84C72.4038 20.9316 72.8162 21.0229 73.223 21.1311L73.309 21.1539C73.9219 21.3165 74.5502 21.4831 75.1328 21.741C75.7028 22.001 75.8727 22.6209 75.6228 23.1409C75.4528 23.5008 75.1328 23.7008 74.7729 23.8108C74.1629 24.0008 73.533 24.0108 72.903 23.9108C72.1031 23.7908 71.4932 23.4509 71.2732 22.7109C71.1932 22.451 70.9632 22.271 70.6933 22.271ZM55.4345 26.4405H52.8447C52.4947 26.4405 52.2248 26.1605 52.2248 25.8205V13.9317C52.2248 13.5918 52.5047 13.3118 52.8447 13.3118H55.2945C55.6844 13.3118 55.9844 13.6718 55.9044 14.0617C55.7944 14.6317 55.5744 15.1716 55.3045 15.7116C55.2045 15.9015 55.2845 16.1315 55.4644 16.2315L55.8244 16.4315C56.0144 16.5315 56.2544 16.4615 56.3544 16.2715C56.3895 16.206 56.424 16.141 56.4583 16.0765L56.4583 16.0765C56.5704 15.8657 56.6794 15.6607 56.7943 15.4616C58.3242 12.8618 60.9039 12.6519 62.7237 13.3718C64.1936 13.9517 64.9535 15.1516 65.3035 16.6115C65.4834 17.3514 65.5734 18.1213 65.5834 18.8812C65.6121 21.2157 65.5951 25.4176 65.5935 25.7935L65.5934 25.8205C65.5934 26.1305 65.3735 26.4505 64.9735 26.4505H62.3638C62.0038 26.4505 61.7338 26.1705 61.7338 25.8205L61.734 25.7388V25.7386V25.7381C61.7352 25.1586 61.7423 21.711 61.7238 19.7811C61.7138 19.2512 61.6638 18.7013 61.5238 18.1813C61.2639 17.1614 60.5939 16.5215 59.534 16.3715C57.7842 16.1115 56.3444 16.7615 56.0944 18.9612C56.0744 19.1112 56.0744 19.2612 56.0744 19.4112C56.0644 21.5608 56.0644 25.7398 56.0644 25.8305V25.8305C56.0644 26.1005 55.8444 26.4405 55.4345 26.4405ZM145.156 22.2709H142.686C142.296 22.2709 142.006 22.6209 142.066 22.9909C142.276 24.3607 143.196 25.5106 144.626 26.1206C146.376 26.8705 148.206 26.9305 150.056 26.5905C151.186 26.3905 152.195 25.9406 153.015 25.1007C154.305 23.7708 154.425 21.1011 152.795 19.9312C152.315 19.5812 151.755 19.2912 151.186 19.1213C150.598 18.9526 150.001 18.8224 149.404 18.692C148.904 18.5828 148.403 18.4735 147.906 18.3413C147.346 18.1914 146.776 18.0114 146.286 17.7214C145.696 17.3814 145.716 16.5715 146.256 16.1516C146.406 16.0316 146.596 15.9316 146.786 15.8716C147.476 15.6616 148.166 15.6716 148.846 15.9016C149.366 16.0816 149.736 16.3915 149.906 16.8815C149.996 17.1615 150.256 17.3114 150.506 17.3114H152.895C153.325 17.3114 153.585 16.8915 153.505 16.5515C153.265 15.3416 152.585 14.4017 151.476 13.8418C149.126 12.6519 146.686 12.6119 144.286 13.6918C142.326 14.5717 141.896 16.5015 142.326 18.1314C142.666 19.4112 143.646 20.0812 144.836 20.4411C145.369 20.5999 145.912 20.7201 146.453 20.84C146.867 20.9315 147.279 21.0229 147.686 21.1311L147.772 21.1539C148.385 21.3165 149.013 21.4831 149.596 21.741C150.166 22.001 150.336 22.6209 150.086 23.1409C149.916 23.5008 149.596 23.7008 149.236 23.8108C148.626 24.0008 147.996 24.0108 147.366 23.9108C146.566 23.7908 145.956 23.4508 145.736 22.7109C145.656 22.4509 145.426 22.2709 145.156 22.2709ZM140.095 21.0611H130.556C129.826 21.0611 129.716 21.491 129.996 21.981C130.336 22.6709 130.886 23.1809 131.635 23.5108C133.145 24.1808 135.105 23.8608 136.165 22.7009C136.539 22.26 136.6 22.2601 137.159 22.2609L137.235 22.261C137.775 22.2759 138.315 22.2741 138.855 22.2722L138.856 22.2722C139.035 22.2716 139.215 22.2709 139.395 22.2709C139.795 22.2709 140.195 22.6909 139.945 23.2009C139.655 23.7208 139.295 24.1908 138.875 24.6107C137.605 25.8806 136.055 26.5405 134.285 26.7205C132.525 26.9105 130.846 26.6505 129.306 25.7606C127.266 24.5907 126.146 22.7909 125.956 20.4611C125.776 18.3613 126.396 16.5015 127.916 14.9917C129.056 13.8618 130.466 13.2519 132.045 13.0319C133.985 12.7619 135.845 13.0119 137.535 14.0518C139.705 15.3916 140.735 17.3814 140.755 19.9212C140.755 20.092 140.746 20.2538 140.736 20.4236L140.736 20.4241L140.735 20.4511C140.705 20.8011 140.425 21.0611 140.095 21.0611ZM136.475 18.6813C136.765 18.6813 136.965 18.4013 136.875 18.1314C136.425 16.8015 134.965 15.8516 133.295 15.8716C131.645 15.8916 130.216 16.8615 129.806 18.1414C129.716 18.4113 129.926 18.6813 130.206 18.6813H136.475ZM93.3505 24.4608C94.9403 26.1006 96.9101 26.7406 99.0899 26.7906C101.11 26.7606 102.92 26.2406 104.479 24.9308C107.119 22.691 107.529 18.4514 105.379 15.7517C104.119 14.1718 102.46 13.3119 100.49 13.042C98.05 12.712 95.8103 13.1719 93.8704 14.7718C91.0107 17.1215 90.7708 21.8111 93.3505 24.4608ZM102.75 18.7414C103.409 21.2311 101.93 23.5009 99.1399 23.4909C97.3401 23.4909 95.9802 22.571 95.5203 21.0112C94.8703 18.7314 96.1002 16.1516 99.2399 16.2116C101.03 16.2416 102.35 17.2115 102.75 18.7414ZM45.4258 13.9316V25.8105C45.4258 26.1504 45.7057 26.4304 46.0557 26.4404H48.6255C48.9754 26.4404 49.2554 26.1604 49.2554 25.8105V13.9316C49.2554 13.5817 48.9754 13.3017 48.6255 13.3017H46.0557C45.7057 13.3017 45.4258 13.5817 45.4258 13.9316ZM123.057 7.07244C122.817 7.06244 121.067 7.06244 120.827 7.07244C120.167 7.10244 119.757 7.54239 119.807 8.30232C119.828 8.65774 119.849 9.26088 119.866 9.76643C119.874 9.98623 119.881 10.1876 119.887 10.3421C119.897 10.7421 120.237 11.062 120.637 11.052H123.256C123.656 11.052 123.986 10.7421 124.006 10.3421C124.012 10.1876 124.019 9.98634 124.027 9.76661C124.045 9.26102 124.066 8.65778 124.086 8.30232C124.126 7.54239 123.716 7.10244 123.057 7.07244ZM120.027 13.9316V25.8105C120.027 26.1504 120.307 26.4304 120.657 26.4404H123.227C123.577 26.4404 123.857 26.1604 123.857 25.8105V13.9316C123.857 13.5817 123.577 13.3017 123.227 13.3017H120.657C120.307 13.3017 120.027 13.5817 120.027 13.9316Z" fill="#1C1D1F"></path><defs><filter id="filter0_f_68_5106" x="-42.3715" y="-42.372" width="118.641" height="118.641" filterUnits="userSpaceOnUse" color-interpolation-filters="sRGB"><feFlood flood-opacity="0" result="BackgroundImageFix"></feFlood><feBlend mode="normal" in="SourceGraphic" in2="BackgroundImageFix" result="shape"></feBlend><feGaussianBlur stdDeviation="12.3264" result="effect1_foregroundBlur_68_5106"></feGaussianBlur></filter><filter id="filter1_f_68_5106" x="-41.6019" y="-6.93348" width="93.6804" height="93.6804" filterUnits="userSpaceOnUse" color-interpolation-filters="sRGB"><feFlood flood-opacity="0" result="BackgroundImageFix"></feFlood><feBlend mode="normal" in="SourceGraphic" in2="BackgroundImageFix" result="shape"></feBlend><feGaussianBlur stdDeviation="12.3264" result="effect1_foregroundBlur_68_5106"></feGaussianBlur></filter><filter id="filter2_f_68_5106" x="0.0017643" y="16.949" width="55.4691" height="55.4686" filterUnits="userSpaceOnUse" color-interpolation-filters="sRGB"><feFlood flood-opacity="0" result="BackgroundImageFix"></feFlood><feBlend mode="normal" in="SourceGraphic" in2="BackgroundImageFix" result="shape"></feBlend><feGaussianBlur stdDeviation="6.16318" result="effect1_foregroundBlur_68_5106"></feGaussianBlur></filter><filter id="filter3_f_68_5106" x="-0.771673" y="-43.9128" width="69.3363" height="69.3358" filterUnits="userSpaceOnUse" color-interpolation-filters="sRGB"><feFlood flood-opacity="0" result="BackgroundImageFix"></feFlood><feBlend mode="normal" in="SourceGraphic" in2="BackgroundImageFix" result="shape"></feBlend><feGaussianBlur stdDeviation="6.16318" result="effect1_foregroundBlur_68_5106"></feGaussianBlur></filter><linearGradient id="paint0_linear_68_5106" x1="30.7916" y1="-0.544741" x2="6.61518" y2="30.0258" gradientUnits="userSpaceOnUse"><stop offset="0.1374" stop-color="#FF79FF"></stop><stop offset="0.4895" stop-color="#F12BFF"></stop><stop offset="1" stop-color="#A941FF"></stop></linearGradient><linearGradient id="paint1_linear_68_5106" x1="32.1184" y1="0.496695" x2="7.94194" y2="31.0672" gradientUnits="userSpaceOnUse"><stop offset="0.1434" stop-color="#FF79FF"></stop><stop offset="0.4895" stop-color="#F12BFF"></stop><stop offset="1" stop-color="#A941FF"></stop></linearGradient></defs></svg> 